HIERARCHY
ROOT Hips
{
	OFFSET 0.00000 0.00000 0.00000
	CHANNELS 6 Xposition Yposition Zposition Zrotation Yrotation Xrotation 
	JOINT LHipJoint
	{
		OFFSET 0 0 0
		CHANNELS 3 Zrotation Yrotation Xrotation
		JOINT LeftHip
		{
			OFFSET 1.34019 -1.87553 0.90315
			CHANNELS 3 Zrotation Yrotation Xrotation
			JOINT LeftKnee
			{
				OFFSET 2.55316 -7.01474 0.00000
				CHANNELS 3 Zrotation Yrotation Xrotation
				JOINT LeftAnkle
				{
					OFFSET 2.64657 -7.27139 0.00000
					CHANNELS 3 Zrotation Yrotation Xrotation
					JOINT LeftToe
					{
						OFFSET 0.24207 -0.66507 2.14489
						CHANNELS 3 Zrotation Yrotation Xrotation
						End Site
						{
							OFFSET 0.00000 -0.00000 1.12451
						}
					}
				}
			}
		}
	}
	JOINT RHipJoint
	{
		OFFSET 0 0 0
		CHANNELS 3 Zrotation Yrotation Xrotation
		JOINT RightHip
		{
			OFFSET -1.28320 -1.87553 0.90315
			CHANNELS 3 Zrotation Yrotation Xrotation
			JOINT RightKnee
			{
				OFFSET -2.60484 -7.15674 0.00000
				CHANNELS 3 Zrotation Yrotation Xrotation
				JOINT RightAnkle
				{
					OFFSET -2.60296 -7.15159 0.00000
					CHANNELS 3 Zrotation Yrotation Xrotation
					JOINT RightToe
					{
						OFFSET -0.31082 -0.85398 2.28998
						CHANNELS 3 Zrotation Yrotation Xrotation
						End Site
						{
							OFFSET -0.00000 -0.00000 1.21611
						}
					}
				}
			}
		}
	}
	JOINT lowerback
	{
		OFFSET 0 0 0
		CHANNELS 3 Zrotation Yrotation Xrotation
		JOINT Chest
		{
			OFFSET -0.00160 2.05581 -0.15156
			CHANNELS 3 Zrotation Yrotation Xrotation
			JOINT Chest2
			{
				OFFSET 0.04594 2.06326 -0.01617
				CHANNELS 3 Zrotation Yrotation Xrotation
				JOINT lowerneck
				{
					OFFSET 0 0 0
					CHANNELS 3 Zrotation Yrotation Xrotation
					JOINT Neck
					{
						OFFSET 0.03753 1.73883 0.26751
						CHANNELS 3 Zrotation Yrotation Xrotation
						JOINT Head
						{
							OFFSET -0.09795 1.76129 -0.31794
							CHANNELS 3 Zrotation Yrotation Xrotation
							End Site
							{
								OFFSET -0.03611 1.79987 -0.13846
							}
						}
					}
				}
				JOINT LeftCollar
				{
					OFFSET 0 0 0
					CHANNELS 3 Zrotation Yrotation Xrotation
					JOINT LeftShoulder
					{
						OFFSET 3.30667 1.29205 -0.22445
CHANNELS 3 Zrotation Xrotation Yrotation
						JOINT LeftElbow
						{
OFFSET 0 -4.927850 -0.000000
CHANNELS 3 Zrotation Xrotation Yrotation
							JOINT LeftWrist
							{
OFFSET 0 -3.440520 0.000000
CHANNELS 3 Zrotation Xrotation Yrotation
								JOINT lhand
								{
									OFFSET 0 0 0
CHANNELS 3 Zrotation Xrotation Yrotation
									JOINT LFingers
									{
OFFSET 0 -0.654330 0.000000
CHANNELS 3 Zrotation Xrotation Yrotation
										End Site
										{
OFFSET 0 -0.527530 0.000000
										}
									}
								}
								JOINT LThumb
								{
OFFSET 0 0.000000 0.000000
CHANNELS 3 Zrotation Xrotation Yrotation
									End Site
									{
OFFSET 0 -0.535590 0.535590
									}
								}
							}
						}
					}
				}
				JOINT RightCollar
				{
					OFFSET 0 0 0
					CHANNELS 3 Zrotation Yrotation Xrotation
					JOINT RightShoulder
					{
						OFFSET -3.20032 1.49783 -0.27688
CHANNELS 3 Zrotation Xrotation Yrotation
						JOINT RightElbow
						{
OFFSET 0 -5.091810 -0.000000
CHANNELS 3 Zrotation Xrotation Yrotation
							JOINT RightWrist
							{
OFFSET 0 -3.498650 -0.000000
CHANNELS 3 Zrotation Xrotation Yrotation
								JOINT rhand
								{
									OFFSET 0 0 0
CHANNELS 3 Zrotation Xrotation Yrotation
									JOINT RFingers
									{
OFFSET 0 -0.666410 0.000000
CHANNELS 3 Zrotation Xrotation Yrotation
										End Site
										{
OFFSET 0 -0.537280 0.000000
										}
									}
								}
								JOINT RThumb
								{
OFFSET 0 0.000000 0.000000
CHANNELS 3 Zrotation Xrotation Yrotation
									End Site
									{
OFFSET 0 -0.545480 0.545480
									}
								}
							}
						}
					}
				}
			}
		}
	}
}
MOTION
Frames: 4
Frame Time: 0.008333333333333333
-0.122200 17.877400 -29.144300 0.698400 5.389100 4.046000 0.000000 0.000000 0.000000 -19.283900 -5.767800 -9.224300 2.159600 9.191000 26.394500 0.129900 11.031000 -17.476300 0.137100 -2.386500 -6.575000 0.000000 0.000000 0.000000 19.145900 1.876300 -12.834900 -3.155500 -10.942700 32.086800 -0.230100 -14.956100 -23.496000 -0.014000 0.764000 -2.099700 -4.011200 0.192400 0.027700 3.080500 0.267300 -2.287200 5.441700 0.252100 -2.409600 7.499500 0.579800 -22.134000 -9.008800 0.810700 25.633200 -4.575500 -0.104800 12.191700 0.000000 -0.000000 0.000000 0.139700 5.603200 -25.676400 14.332900 -23.208600 2.958000 11.911700 -7.097800 -0.462500 0.000000 0.000000 0.000000 -7.125000 0.000000 0.000000 -11.547900 30.339500 -4.209900 0.000000 -0.000000 0.000000 -6.757600 2.191100 12.146400 -13.089100 -21.417600 -2.485700 -15.753100 -3.288400 3.214800 0.000000 0.000000 0.000000 7.125000 0.000000 -0.000000 8.830000 33.226000 2.574300
-0.122646 17.877177 -29.143141 0.703437 5.391061 4.043682 0.000000 0.000000 0.000000 -19.288090 -5.776804 -9.215742 2.160269 9.192248 26.398512 0.130078 11.034254 -17.482719 0.137457 -2.389442 -6.583246 0.000000 0.000000 0.000000 19.145410 1.876924 -12.825361 -3.154831 -10.941630 32.083234 -0.225687 -14.979769 -23.485302 -0.014669 0.782097 -2.149445 -3.143606 0.127411 0.156787 2.407205 0.176458 -2.386734 4.251477 0.184035 -2.566368 8.044554 0.654908 -21.853539 -8.632459 0.627188 25.609620 -4.545947 -0.078367 12.108123 0.000000 0.000000 0.000000 1.277905 5.840424 -25.821668 14.387236 -23.285535 2.979485 11.862312 -7.446460 -0.385208 0.000000 0.000000 0.000000 -7.125000 0.000000 0.000000 -11.577007 30.261317 -4.243063 0.000000 0.000000 0.000000 -5.603081 2.277619 11.971535 -13.023442 -21.321453 -2.461853 -15.748643 -2.854068 2.995004 0.000000 0.000000 0.000000 7.125000 0.000000 0.000000 8.808337 33.000320 2.616244
-0.123091 17.876954 -29.141982 0.708474 5.393023 4.041364 0.000000 0.000000 0.000000 -19.292280 -5.785808 -9.207183 2.160937 9.193496 26.402523 0.130257 11.037508 -17.489137 0.137813 -2.392384 -6.591492 0.000000 0.000000 0.000000 19.144919 1.877548 -12.815822 -3.154163 -10.940560 32.079668 -0.221274 -15.003438 -23.474604 -0.015337 0.800194 -2.199190 -2.276012 0.062421 0.285874 1.733911 0.085615 -2.486269 3.061255 0.115970 -2.723136 8.589609 0.730015 -21.573077 -8.256119 0.443675 25.586040 -4.516394 -0.051935 12.024546 0.000000 0.000000 0.000000 2.416109 6.077649 -25.966935 14.441572 -23.362470 3.000970 11.812923 -7.795120 -0.307916 0.000000 0.000000 0.000000 -7.125000 0.000000 0.000000 -11.606114 30.183133 -4.276227 0.000000 0.000000 0.000000 -4.448563 2.364137 11.796670 -12.957784 -21.225307 -2.438006 -15.744185 -2.419736 2.775208 0.000000 0.000000 0.000000 7.125000 0.000000 0.000000 8.786674 32.774641 2.658189
-0.123841 17.877001 -29.140924 0.700932 5.397715 4.037158 0.000000 0.000000 0.000000 -19.280688 -5.786213 -9.202908 2.161741 9.195081 26.407513 0.130165 11.040155 -17.491442 0.137158 -2.386895 -6.576268 0.000000 0.000000 0.000000 19.159503 1.885490 -12.803349 -3.154236 -10.940637 32.079947 -0.220672 -15.015877 -23.484848 -0.015365 0.800823 -2.200947 -2.050636 0.037731 0.336387 1.572293 0.051731 -2.519875 2.766273 0.093600 -2.780927 8.745333 0.751065 -21.451349 -8.183722 0.403047 25.528063 -4.516686 -0.044016 11.973681 0.000000 0.000000 0.000000 2.693874 6.153880 -25.982943 14.447448 -23.370813 3.003300 11.767009 -7.861216 -0.344372 0.000000 0.000000 0.000000 -7.125000 0.000000 0.000000 -11.646282 30.218798 -4.281332 0.000000 0.000000 0.000000 -4.153674 2.409818 11.777133 -12.948477 -21.211680 -2.434628 -15.742459 -2.321250 2.806614 0.000000 0.000000 0.000000 7.125000 0.000000 0.000000 8.791618 32.806840 2.652820
